<svg width="256" xmlns="http://www.w3.org/2000/svg" height="256" fill="none"><defs><clipPath id="a" class="frame-clip frame-clip-def"><rect rx="0" ry="0" width="256" height="256" transform="matrix(1.000000, 0.000000, 0.000000, 1.000000, 0.000000, 0.000000)"/></clipPath></defs><g clip-path="url(#a)"><g class="fills"><rect rx="0" ry="0" width="256" height="256" transform="matrix(1.000000, 0.000000, 0.000000, 1.000000, 0.000000, 0.000000)" class="frame-background"/></g><g class="frame-children"><defs><clipPath id="b" class="frame-clip frame-clip-def"><rect rx="0" ry="0" width="256" height="256" transform="matrix(1.000000, 0.000000, 0.000000, 1.000000, 0.000000, 0.000000)"/></clipPath></defs><g clip-path="url(#b)"><g class="fills"><rect rx="0" ry="0" width="256" height="256" transform="matrix(1.000000, 0.000000, 0.000000, 1.000000, 0.000000, 0.000000)" class="frame-background"/></g><g class="frame-children"><rect rx="0" ry="0" transform="matrix(1.000000, 0.000000, 0.000000, 1.000000, 0.000000, 0.000000)" width="256" height="256" style="fill: rgb(55, 68, 59); fill-opacity: 1;" class="fills"/><g class="fills"><rect rx="0" ry="0" x="32" y="32" width="192" height="192" transform="matrix(1.000000, 0.000000, 0.000000, 1.000000, 0.000000, 0.000000)" class="frame-background"/></g><g class="frame-children"><rect rx="0" ry="0" x="110.75" y="119.281" transform="matrix(1.000000, 0.000000, 0.000000, 1.000000, 0.000000, 0.000000)" width="34.5" height="90" style="fill: rgb(185, 121, 10); fill-opacity: 1;" class="fills"/><ellipse cx="128" cy="103.334" rx="56.625" ry="56.625" transform="matrix(1.000000, 0.000000, 0.000000, 1.000000, 0.000000, 0.000000)" style="fill: rgb(115, 161, 24); fill-opacity: 1;" class="fills"/></g></g></g></g></g></svg>